<svg xmlns="http://www.w3.org/2000/svg" width="198" height="141" viewBox="0 0 198 141">
    <defs>
        <linearGradient id="a" x1="22.352%" x2="71.46%" y1="-9.241%" y2="70.685%">
            <stop offset="0%" stop-color="#55B4E1"/>
            <stop offset="33.74%" stop-color="#00A2E1"/>
            <stop offset="100%" stop-color="#0086C4"/>
        </linearGradient>
        <linearGradient id="b" x1="-.062%" x2="99.968%" y1="49.959%" y2="49.959%">
            <stop offset=".613%" stop-color="#7FBD63"/>
            <stop offset="100%" stop-color="#D8D446"/>
        </linearGradient>
        <linearGradient id="c" x1="53.341%" x2="41.209%" y1="1.028%" y2="98.305%">
            <stop offset=".613%" stop-color="#00A65E"/>
            <stop offset="100%" stop-color="#B9CC58"/>
        </linearGradient>
        <linearGradient id="d" x1="77.936%" x2="18.677%" y1="13.07%" y2="91.373%">
            <stop offset="12.88%" stop-color="#00AAB5"/>
            <stop offset="100%" stop-color="#00BAD5"/>
        </linearGradient>
        <linearGradient id="e" x1="33.406%" x2="101.222%" y1="16.971%" y2="89.934%">
            <stop offset="0%" stop-color="#F9C737"/>
            <stop offset="100%" stop-color="#E66486"/>
        </linearGradient>
        <linearGradient id="f" x1="48.092%" x2="56.642%" y1="14.841%" y2="70.289%">
            <stop offset="0%" stop-color="#B56189"/>
            <stop offset="100%" stop-color="#E1659A"/>
        </linearGradient>
    </defs>
    <g fill="none" fill-rule="nonzero">
        <g fill="#FFF">
            <path d="M27.4 138.4h-5.7l-1.3-9.6c-.1-.7-.2-1.4-.3-2.3-.1-.8-.1-1.7-.2-2.7-.2.9-.4 2.1-.8 3.5-.1.3-.1.5-.2.6l-3 10.4h-4l-3-10.4c-.1-.1-.1-.4-.2-.6-.4-1.4-.7-2.6-.8-3.5 0 .8-.1 1.7-.2 2.5s-.2 1.6-.3 2.5l-1.3 9.6H.4l3.4-22.2h6l3.3 11.4c0 .1.1.2.1.4.3 1 .5 1.9.6 2.6 0-.4.1-.8.2-1.3s.3-1.1.4-1.7l3.4-11.4h6l3.6 22.2zM29.3 138.4v-22.2h13.6v4.9h-7.7v3.8h7.3v4.8h-7.3v3.7h7.7v5H29.3zM56.4 130.2v-4.7h11.9v1.3c0 3.8-1 6.8-3 8.9-2 2.1-4.9 3.2-8.5 3.2-1.8 0-3.4-.3-4.8-.8s-2.7-1.4-3.7-2.5c-1.1-1.1-1.9-2.3-2.5-3.8-.6-1.4-.9-3-.9-4.6 0-1.6.3-3.2.8-4.6.6-1.4 1.4-2.6 2.5-3.7s2.4-1.9 3.8-2.4c1.4-.6 3-.8 4.6-.8 2.2 0 4.1.4 5.8 1.3 1.7.9 3.1 2.1 4.2 3.8l-5.2 2.5c-.6-.9-1.3-1.5-2.1-1.9-.8-.4-1.7-.6-2.6-.6-1.8 0-3.2.6-4.3 1.8-1 1.2-1.6 2.9-1.6 4.9 0 2.1.5 3.8 1.6 5 1 1.2 2.5 1.8 4.3 1.8 1.5 0 2.8-.4 3.9-1.1 1-.8 1.6-1.8 1.8-3h-6zM68 138.4l7.7-22.2h7.6l7.7 22.2h-6l-1.1-4h-8.6l-1.1 4H68zm8.5-8.3h6l-2.3-7.3c-.1-.2-.2-.6-.3-1.1-.1-.5-.3-1.1-.5-1.9-.1.6-.3 1.1-.4 1.6-.1.5-.3 1-.4 1.4l-2.1 7.3zM107.6 121.3c-.4-.2-.7-.5-1.1-.7-.7-.4-2.1-1.3-4.4-1.3-2.5 0-5.1 1.2-6.6 3.2-1.5 1.9-1.6 4.3-1.6 5.1 0 .6.1 2.1.8 3.7 1.3 2.8 4.3 4.5 7.4 4.5 2.2 0 3.6-.8 5.4-2v3.7c-1 .5-2.7 1.4-5.5 1.4-1.4 0-4.6-.3-7.5-2.7-1.3-1.1-3.8-3.8-3.8-8.6 0-2.8.9-5.6 2.7-7.5 2.1-2.3 5.5-3.8 8.6-3.8 2 0 3.6.6 5.5 1.4l.1 3.6zM121.9 116.5v3.1H113v5.3h8.8v3H113v7.5h8.7v3h-11.9v-21.8h12.1zM140.1 116.5h3.2v22.7c-2.5-2.6-5-5.1-7.5-7.6-1.5-1.5-3-3-4.4-4.5-1.5-1.6-3-3.2-4.4-4.8.1 1.1.2 2.1.2 3.1 0 .9 0 1.9.1 2.8v10.1H124V115c3.1 3 6.1 6.1 9.2 9.2l7.2 7.5c-.1-.7-.2-1.4-.2-2.1 0-.6 0-1.2-.1-1.8v-11.3zM158.4 116.5v3.1h-5.2v18.8h-3.1v-18.8h-5.2v-3.1zM171.5 138.4l-6.7-9.3h-1.3v9.4h-3.1v-21.9h6.4c1.5.1 3 .2 4.2 1.1 1.6 1.1 2.3 3.1 2.3 5 0 .9-.2 3.8-2.7 5.4-.5.3-.9.5-2 .8 1 1.5 2 2.9 3.1 4.4.8 1.1 1.6 2.1 2.4 3.2.5.7.9 1.3 1.3 2h-3.9v-.1zm-7.9-18.9v6.9h2.5c1.5-.1 2.6-.3 3.4-1.5.2-.3.6-1.1.6-2.2 0-.4-.1-1.7-1.1-2.5-.7-.5-1.6-.6-2.4-.6h-3v-.1zM177.8 119.6c2.1-2.3 5.2-3.5 8.3-3.5 3.7 0 6.3 1.7 7.3 2.6 2.6 2.1 4.2 5.4 4.2 8.8 0 .7-.1 2.4-.9 4.3-1.8 4.3-6 7-10.6 7-3.7 0-6.3-1.8-7.3-2.6-2.7-2.1-4.1-5.5-4-8.9 0-3 1.1-5.7 3-7.7zm1.8 12.9c1.6 2 4 3.1 6.5 3.1.9 0 3.1-.1 5.1-1.7 2-1.5 3.2-3.9 3.2-6.4 0-1.5-.5-2.8-.7-3.3-1.3-3-4.3-4.9-7.6-4.9-1.8 0-3.7.6-5.1 1.7-.9.7-3 2.7-3.1 6-.1 1.9.5 3.9 1.7 5.5z"/>
        </g>
        <path fill="url(#a)" d="M112.3 72.6c-4.5 5.5-11.2 8.6-18.2 8.6S80.6 78.1 76 72.8L60.8 56.5l-16.5 15L61.4 90c8.7 8.6 20.5 13.6 32.7 13.6 13.4 0 26-5.8 34.7-15.9L144 71.5l-16.6-15.1-15.1 16.2z"/>
        <path fill="url(#b)" d="M158.7 39.9c0-21.6-16.8-39.1-37.4-39.1C111 .8 101.2 5.2 94.2 13 87 5.2 77.2.8 67 .8 46.4.8 29.6 18.3 29.6 39.9c0 10.1 3.7 19.7 10.4 27l1.8 2L58.5 54l-2.7-2.9c-2.8-3-4.3-7.1-4.3-11.3 0-9 6.9-16.3 15.4-16.3 4.6 0 8.2 2.6 12.3 5.6l.4.3c2.2 1.6 4.5 3.8 6.8 5.9 3.9 3.7 6.4 6 8.4 6.2h.2c1.9 0 4.6-2.6 9.1-7.2 1.8-1.8 3.7-3.8 5.3-5.2 3.9-3.5 7.3-5.6 11.9-5.6 8.5 0 15.4 7.3 15.4 16.3 0 4.4-1.6 8.5-4.6 11.5l-2.4 2.6 16.8 14.8 1.4-1.5c6.9-7.2 10.8-17 10.8-27.3z"/>
        <path fill="url(#c)" d="M67 23.6c-8.5 0-15.4 7.3-15.4 16.3 0 4.2 1.5 8.2 4.3 11.3l2.7 2.9-16.9 14.8-1.8-2c-4.6-5-7.8-11.1-9.3-17.7 3.8-14.7 17.8-25.7 34.5-25.7l1.9.1z"/>
        <path fill="url(#d)" d="M127.4 56.5l-15.1 16.2c-4.5 5.5-11.2 8.6-18.2 8.6-5.9 0-11.5-2.2-15.8-6.1 12.4 13 34.1 29.7 51 12.2L144 71.5l-16.6-15z"/>
        <path fill="url(#e)" d="M123.1 23.5c16.7 0 30.6 10.9 34.5 25.7.7-3 1.1-6.1 1.1-9.3 0-21.6-16.8-39.1-37.4-39.1C111 .8 101.2 5.2 94.2 13c8.1 8.2 12.3 14.6 23.7 11.1 1.2-.4 2.5-.4 3.4-.4l1.8-.2z"/>
        <path fill="url(#f)" d="M121.2 23.6c8.5 0 15.4 7.3 15.4 16.3 0 4.2-1.5 8.2-4.3 11.3l-2.7 2.9 16.8 14.8 1.8-2c4.6-5 7.8-11.1 9.3-17.7-3.8-14.7-17.8-25.7-34.5-25.7l-1.8.1z"/>
    </g>
</svg>
